<svg id="ic_snb_insurance" xmlns="http://www.w3.org/2000/svg" width="48" height="44">
    <defs>
        <style>
            .cls-4{fill:#fff}
        </style>
    </defs>
    <g id="icon" transform="translate(12 10)">
        <g id="ico" transform="translate(-1511 -629)">
            <path id="합치기_1155" data-name="합치기 1155" class="cls-4" d="M22602 16436.5a3 3 0 0 1-3-3v-14a3 3 0 0 1 3-3h1.822a2.27 2.27 0 0 1 1.424-.5h5.5a2.248 2.248 0 0 1 0 4.5h-5.5a2.251 2.251 0 0 1-2.252-2.248 1.993 1.993 0 0 1 .01-.244h-1a1.5 1.5 0 0 0-1.5 1.492v14a1.5 1.5 0 0 0 1.5 1.5h5.25a.749.749 0 1 1 0 1.5h-.254v.006zm2.492-18.254a.749.749 0 0 0 .754.744h5.5a.747.747 0 1 0 0-1.494h-5.5a.754.754 0 0 0-.746.754zm-.5 10.5a.752.752 0 0 1 0-1.5h4a.752.752 0 0 1 0 1.5zm11.506-3v-6.25a1.5 1.5 0 0 0-1.5-1.492h-1.012a2.2 2.2 0 0 0-.822-1.5h1.836a3.008 3.008 0 0 1 3.008 3v6.25a.752.752 0 1 1-1.5 0zm-11.506-1a.749.749 0 1 1 0-1.5h8a.749.749 0 0 1 0 1.5z" transform="translate(-21084.998 -15785.498)"/>
            <g id="check" transform="translate(1511 629)">
                <path id="빼기_641" data-name="빼기 641" class="cls-4" d="M21093 15797a5 5 0 1 1 5-5 5.008 5.008 0 0 1-5 5zm-2.5-5.563a.749.749 0 0 0-.512.2.762.762 0 0 0-.037 1.064l1.668 1.784a.736.736 0 0 0 .547.238.75.75 0 0 0 .551-.238l3.33-3.574a.743.743 0 0 0 .2-.534.751.751 0 0 0-1.3-.487l-2.785 2.986-1.117-1.2a.746.746 0 0 0-.545-.24z" transform="translate(-21075 -15774)"/>
            </g>
        </g>
    </g>
</svg>
