<svg id="ic_snb_code" xmlns="http://www.w3.org/2000/svg" width="48" height="44">
    <defs>
        <style>
            .cls-3{opacity:0;fill:rgba(255,0,255,.3)}.cls-4{fill:#fff}
        </style>
    </defs>
    <g id="icon" transform="translate(12 10)">
        <g id="그룹_54368" data-name="그룹 54368" transform="translate(0 -1)">
            <path id="합치기_1157" data-name="합치기 1157" class="cls-4" d="M20940.006 15807H20935a3 3 0 0 1-3-3v-10c0-.068.006-.137.01-.205v-2.8a3 3 0 0 1 3-3h5.006a3 3 0 0 1 2.992 3h6.01a3 3 0 0 1 3 3v3.255a.752.752 0 0 1-1.5 0v-1.25h.006v-2a1.5 1.5 0 0 0-1.5-1.5H20935a1.5 1.5 0 0 0-1.5 1.5v10a1.5 1.5 0 0 0 1.5 1.5h6.252a.75.75 0 1 1 0 1.5zm-6.51-16.006v.4a3 3 0 0 0-1.33 1.62 3 3 0 0 1 2.834-2.014h6.5a1.492 1.492 0 0 0-1.494-1.494H20935a1.5 1.5 0 0 0-1.5 1.494z" transform="translate(-20930.004 -15785.002)"/>
        </g>
        <g id="setting">
            <path id="빼기_11" data-name="빼기 11" class="cls-4" d="M129.475 909.5h-1.945a.512.512 0 0 1-.51-.429l-.162-1.105a3.754 3.754 0 0 1-.615-.347l-1.072.418a.547.547 0 0 1-.185.032.518.518 0 0 1-.448-.252l-.971-1.635a.5.5 0 0 1 .125-.642l.908-.692a3.861 3.861 0 0 1 0-.697l-.9-.692a.486.486 0 0 1-.126-.642l.971-1.638a.505.505 0 0 1 .442-.252.512.512 0 0 1 .185.034l1.077.42a4.016 4.016 0 0 1 .611-.346l.165-1.112a.5.5 0 0 1 .507-.424h1.945a.5.5 0 0 1 .505.43l.162 1.105a3.776 3.776 0 0 1 .615.346l1.072-.417a.552.552 0 0 1 .187-.032.51.51 0 0 1 .448.255l.968 1.632a.493.493 0 0 1-.125.641l-.907.692c.01.121.02.235.02.351s-.01.231-.02.346l.907.692a.49.49 0 0 1 .131.633l-.978 1.646a.506.506 0 0 1-.442.252.518.518 0 0 1-.189-.036l-1.072-.418a3.911 3.911 0 0 1-.615.347l-.165 1.111a.5.5 0 0 1-.504.425zm-.976-6.921a1.922 1.922 0 1 0 1.923 1.922 1.923 1.923 0 0 0-1.922-1.922z" transform="translate(-110.5 -886.5)"/>
        </g>
    </g>
</svg>
