<svg xmlns="http://www.w3.org/2000/svg" width="48" height="44">
    <g data-name="그룹 54359">
        <path data-name="합치기 1156" d="M21022.5 15805a2 2 0 0 0-2.5 0h-3a1.992 1.992 0 0 0-2.5 0h-3a2 2 0 0 1-2-2v-5a2 2 0 0 1 2-2h3a2.019 2.019 0 0 1 .5.062V15793a2 2 0 0 1 2-2h3a2.02 2.02 0 0 1 .5.063V15789a2 2 0 0 1 2-2h3a2 2 0 0 1 2 2v14a2 2 0 0 1-2 2zm-.5-16v14a.5.5 0 0 0 .5.5h3a.505.505 0 0 0 .5-.5v-14a.505.505 0 0 0-.5-.5h-3a.5.5 0 0 0-.5.5zm-5.5 4v10a.5.5 0 0 0 .5.5h3a.5.5 0 0 0 .5-.5v-10a.5.5 0 0 0-.5-.5h-3a.5.5 0 0 0-.5.5zm-5.5 5v5a.5.5 0 0 0 .5.5h3a.5.5 0 0 0 .5-.5v-5a.5.5 0 0 0-.5-.5h-3a.5.5 0 0 0-.5.5z" transform="translate(-20994.5 -15774)" style="fill:#fff"/>
    </g>
</svg>
