<svg xmlns="http://www.w3.org/2000/svg" width="48" height="44">
    <path data-name="합치기 1151" d="M22112.744 16164.751V16163a5 5 0 0 1-4.744-5v-6a2 2 0 0 1 1.994-2h.254v-.25a.75.75 0 0 1 1.5 0v2a.75.75 0 0 1-1.5 0v-.248a.8.8 0 0 0-.754.8v5.2a4 4 0 0 0 8 0v-5.2a.8.8 0 0 0-.75-.8v.248a.75.75 0 0 1-1.5 0v-2a.75.75 0 0 1 1.5 0v.25h.25a2 2 0 0 1 2 2v6a5 5 0 0 1-4.748 4.992v1.756a4.748 4.748 0 0 0 9.5 0v-4.83a3.5 3.5 0 1 1 1.5 0v4.83a6.253 6.253 0 1 1-12.506 0zm9.752-8.253a2 2 0 1 0 2-2 2 2 0 0 0-1.996 2.002z" transform="translate(-22093.998 -16138)" style="fill:#fff"/>
</svg>
