<svg id="ic_snb_works" xmlns="http://www.w3.org/2000/svg" width="48" height="44">
    <defs>
        <style>
            .cls-3{fill:#fff}
        </style>
    </defs>
    <g id="icon" transform="translate(11 10)">
        <g id="ico" transform="translate(-1510 -629)">
            <path id="빼기_640" data-name="빼기 640" class="cls-3" d="M22848 16436.5h-12a3 3 0 0 1-3-3v-14a3 3 0 0 1 3-3h1.838a2.237 2.237 0 0 0-.826 1.5H22836a1.5 1.5 0 0 0-1.5 1.5v14a1.5 1.5 0 0 0 1.5 1.5h12a1.5 1.5 0 0 0 1.5-1.5v-14a1.5 1.5 0 0 0-1.5-1.5h-1.018a2.238 2.238 0 0 0-.824-1.5h1.842a3 3 0 0 1 3 3v14a3 3 0 0 1-3 3z" transform="translate(-21319 -15785.5)"/>
            <path id="사각형_28921_-_윤곽선" data-name="사각형 28921 - 윤곽선" class="cls-3" d="M2.25 1.5a.75.75 0 0 0 0 1.5h5.5a.75.75 0 0 0 0-1.5h-5.5m0-1.5h5.5a2.25 2.25 0 0 1 0 4.5h-5.5a2.25 2.25 0 0 1 0-4.5z" transform="translate(1518 630.5)"/>
            <path id="합치기_1150" data-name="합치기 1150" class="cls-3" d="M22836 16422.752v-2.254h-2.252a.748.748 0 1 1 0-1.5h2.252v-2.252a.751.751 0 1 1 1.5 0v2.254h2.248a.748.748 0 1 1 0 1.5h-2.248v2.254a.751.751 0 0 1-1.5 0z" transform="translate(-21313.75 -15778.25)"/>
        </g>
    </g>
</svg>
