<svg xmlns="http://www.w3.org/2000/svg" width="22.003" height="22.004">
    <g data-name="빼기 629" style="fill:none">
        <path d="M11884 19457h-16a3.007 3.007 0 0 1-3-3v-16a3.007 3.007 0 0 1 3-3h16a3.007 3.007 0 0 1 3 3v16a3.007 3.007 0 0 1-3 3zm-16-20.5a1.5 1.5 0 0 0-1.5 1.5v16a1.5 1.5 0 0 0 1.5 1.5h16a1.5 1.5 0 0 0 1.5-1.5v-16a1.505 1.505 0 0 0-1.5-1.5z" style="stroke:none" transform="translate(-11864.998 -19434.998)"/>
        <path d="M11883.998 19457.002h-15.997a3.007 3.007 0 0 1-3.003-3.004v-15.996a3.007 3.007 0 0 1 3.003-3.004h15.997a3.007 3.007 0 0 1 3.003 3.004v15.996a3.007 3.007 0 0 1-3.003 3.004zm-15.997-20.504c-.826 0-1.499.674-1.499 1.504v15.996a1.5 1.5 0 0 0 1.499 1.5h15.997c.83 0 1.504-.672 1.504-1.5v-15.996c0-.83-.675-1.504-1.504-1.504h-15.997z" style="fill:#fff;stroke:none" transform="translate(-11864.998 -19434.998)"/>
    </g>
    <path data-name="합치기 1146" d="M11053.5 20900v-3.5h-3.5v-3h3.5v-3.5h3v3.5h3.5v3h-3.5v3.5z" transform="translate(-11043.998 -20883.998)" style="fill:#fff"/>
</svg>
