<svg id="ic_edit_s" xmlns="http://www.w3.org/2000/svg" width="14.002" height="14" viewBox="0 0 14.002 14">
    <defs>
        <style>
            .cls-2{fill:#7b7b7b}
        </style>
    </defs>
    <g id="그룹_55205" data-name="그룹 55205" transform="translate(-963 -151.5)">
        <path id="Path" class="cls-2" d="M2.537 13.735a1.53 1.53 0 0 0 1.527-1.527l-.007-9.066L2.528 1.1 1 3.143l.008 9.064a1.532 1.532 0 0 0 1.529 1.528m0 1a2.529 2.529 0 0 1-2.529-2.528L0 3.09a.843.843 0 0 1 .169-.506L1.855.337A.843.843 0 0 1 3.034.169.832.832 0 0 1 3.2.337l1.688 2.247a.842.842 0 0 1 .169.506l.007 9.117a2.528 2.528 0 0 1-2.528 2.528zm0 0z" transform="rotate(-135 517.567 -117.435)"/>
        <path id="선" class="cls-2" d="M2.37 2.738-.329.376l.658-.752 2.7 2.362z" transform="translate(971.083 154.797)"/>
    </g>
</svg>
