<svg xmlns="http://www.w3.org/2000/svg" width="18" height="18">
    <path data-name="패스 3313" d="m237.787 300.439-.54-3.8-.068-.48.353-.332 2.431-2.293a.576.576 0 0 0 .108-.548.633.633 0 0 0-.468-.406l-3.139-.612-.426-.083-.211-.379-1.8-3.223a.508.508 0 0 0-.446-.281.647.647 0 0 0-.551.31l-1.784 3.193-.211.379-.425.083-3.152.615a.532.532 0 0 0-.259.951l2.356 2.31.339.331-.067.468-.54 3.806a.559.559 0 0 0 .238.531.553.553 0 0 0 .331.113.536.536 0 0 0 .243-.059l3.068-1.533.425-.212.422.218 2.971 1.53a.526.526 0 0 0 .55-.043.57.57 0 0 0 .252-.554z" transform="translate(-224.548 -285.548)" style="fill:none;stroke:#d4d4d4"/>
</svg>
