<svg xmlns="http://www.w3.org/2000/svg" width="18" height="18" viewBox="0 0 18 18">
    <g data-name="다각형 84" style="fill:#ffe0e0">
        <path d="M14.58 15.5H3.42a1.486 1.486 0 0 1-1.295-.743 1.486 1.486 0 0 1-.013-1.492l5.58-9.92c.27-.48.759-.766 1.308-.766.55 0 1.038.286 1.307.765l5.58 9.92c.265.47.26 1.028-.012 1.493a1.486 1.486 0 0 1-1.295.743z" style="stroke:none"/>
        <path d="M9 3.08a.981.981 0 0 0-.872.51l-5.58 9.92a.983.983 0 0 0 .008.995.983.983 0 0 0 .864.495h11.16a.983.983 0 0 0 .864-.495.983.983 0 0 0 .008-.995l-5.58-9.92A.981.981 0 0 0 9 3.08m0-1c.68 0 1.36.34 1.743 1.019l5.58 9.92C17.073 14.353 16.11 16 14.58 16H3.42c-1.53 0-2.493-1.647-1.743-2.98l5.58-9.921A1.98 1.98 0 0 1 9 2.079z" style="fill:#ff8181;stroke:none"/>
    </g>
    <path data-name="패스 55456" d="M0 0v3" transform="translate(9 7)" style="fill:none;stroke:#ff8181;stroke-linecap:round;stroke-width:1.5px"/>
    <circle data-name="타원 8988" cx="1" cy="1" r="1" transform="translate(8 12)" style="fill:#ff8181"/>
</svg>
