<svg xmlns="http://www.w3.org/2000/svg" width="48" height="44">
    <g data-name="icon">
        <path data-name="합치기 1170" d="M20535.967 14212.453a1.247 1.247 0 0 1 0-.417l.01-.047 2.533-11.323a1.248 1.248 0 0 1 .793-.913l6.99-2.595a1.287 1.287 0 0 1 .373-.075l2.244-2.247a2.753 2.753 0 0 1 3.889 0l1.811 1.812a2.75 2.75 0 0 1 0 3.89l-2.209 2.213a1.245 1.245 0 0 1-.082.434l-2.594 6.99a1.257 1.257 0 0 1-.914.8l-11.363 2.538a1.362 1.362 0 0 1-.207.016 1.282 1.282 0 0 1-1.274-1.076zm2.93-.8 9.463-2.115 2.5-6.732-4.189-4.184-6.732 2.5-2.121 9.482 4.293-4.294a2.28 2.28 0 1 1 1.068 1.059zm4.488-6.33a.774.774 0 1 0 .775-.774.776.776 0 0 0-.775.77zm6.584-9.42-1.945 1.944 3.58 3.575 1.939-1.945a1.241 1.241 0 0 0 0-1.764l-1.8-1.811a1.253 1.253 0 0 0-.887-.368 1.238 1.238 0 0 0-.887.366z" transform="translate(-20521.666 -14181.489)" style="fill:#fff"/>
    </g>
</svg>
