<svg xmlns="http://www.w3.org/2000/svg" width="48" height="44">
    <path data-name="합치기 1163" d="M20946.5 14213a3 3 0 0 1-3-3v-14a3 3 0 0 1 3-3h13a3 3 0 0 1 3 3v14a3 3 0 0 1-3 3zm13-1.5a1.5 1.5 0 0 0 1.5-1.5v-14a1.5 1.5 0 0 0-1.5-1.5h-13a1.505 1.505 0 0 0-1.5 1.5v14a1.506 1.506 0 0 0 1.5 1.5h.248v-17h1.5v17zm-1.656-4.5a8.207 8.207 0 0 1-7.34-7.36.562.562 0 0 1 .395-.6c.09-.037.09-.042.525-.042h1.18a.657.657 0 0 1 .621.452 14.081 14.081 0 0 1 .5 1.8c-.094.441-.619.525-.584 1.025a.563.563 0 0 0 .1.284 5.617 5.617 0 0 0 1.678 1.684.6.6 0 0 0 .758-.074l.236-.231a.646.646 0 0 1 .668-.163 12.15 12.15 0 0 1 1.594.553.652.652 0 0 1 .285.39 11.039 11.039 0 0 1 .016 1.667v.059a.594.594 0 0 1-.59.558z" transform="translate(-20929 -14181)" style="fill:#fff"/>
</svg>
