<svg xmlns="http://www.w3.org/2000/svg" width="48" height="44">
    <path data-name="area" style="fill:rgba(255,0,255,.3);opacity:.005" d="M0 0h24v24H0z" transform="translate(12 10)"/>
    <path data-name="합치기 1171" d="M21196.268 14622.166h-9.5a3 3 0 0 1-3-3v-14a3 3 0 0 1 3-3h8a3 3 0 0 1 3 3v3h2a3.006 3.006 0 0 1 3 3v8a3 3 0 0 1-3 3zm1.5-1.5h2a1.505 1.505 0 0 0 1.5-1.5v-8a1.506 1.506 0 0 0-1.5-1.5h-2zm-1.5 0v-15.5a1.5 1.5 0 0 0-1.5-1.5h-8a1.5 1.5 0 0 0-1.5 1.5v14a1.505 1.505 0 0 0 1.5 1.5h1.5v-4a1.5 1.5 0 0 1 1.5-1.5h2a1.5 1.5 0 0 1 1.5 1.5v4zm-4.5 0v-4h-2v4zm-3.5-8.5v-1.5h5v1.5zm0-3.5v-1.5h5v1.5z" transform="translate(-21169.27 -14590.168)" style="fill:#fff"/>
</svg>
