<svg id="ic_snb_oneffice" xmlns="http://www.w3.org/2000/svg" width="48" height="44">
    <defs>
        <style>
            .cls-3{fill:#fff}
        </style>
    </defs>
    <g id="icon" transform="translate(12 10)">
        <g id="ic_" transform="translate(1.501 1.75)">
            <path id="합치기_1172" data-name="합치기 1172" class="cls-3" d="M20401.277 14211.251a2.746 2.746 0 0 1-2.777-2.706v-14.588a2.743 2.743 0 0 1 2.777-2.706h10.67l5.555 5.539v11.755a2.746 2.746 0 0 1-2.777 2.706zm-1.275-17.294v14.588a1.239 1.239 0 0 0 1.275 1.2h13.447a1.243 1.243 0 0 0 1.275-1.2v-10.8h-3.2a1.868 1.868 0 0 1-2.055-2.05v-2.951h-9.471a1.243 1.243 0 0 0-1.273 1.213zm12.246 1.742a.7.7 0 0 0 .1.451.727.727 0 0 0 .451.1h2.037l-2.592-2.585z" transform="translate(-20397.5 -14191)"/>
            <path id="합치기_1142" data-name="합치기 1142" class="cls-3" d="M11716 19489a3 3 0 1 1 3 3 3.006 3.006 0 0 1-3-3zm1.713 0a1.287 1.287 0 1 0 1.286-1.287 1.289 1.289 0 0 0-1.285 1.287zm5.787 2.5a.5.5 0 0 1 0-1h3a.5.5 0 0 1 0 1zm0-2a.5.5 0 0 1 0-1h3a.5.5 0 0 1 0 1zm0-2a.5.5 0 1 1 0-1h3a.5.5 0 1 1 0 1z" transform="translate(-11711.002 -19477.746)"/>
        </g>
    </g>
</svg>
