<svg xmlns="http://www.w3.org/2000/svg" width="48" height="44">
    <path data-name="area" style="fill:rgba(255,0,255,.3);opacity:.001" d="M0 0h24v24H0z" transform="translate(12 10)"/>
    <g data-name="icon">
        <path data-name="합치기 1167" d="M20673.3 14212.485a3 3 0 0 1-3-3v-10a3 3 0 0 1 3-3h2.918l2.771-2.771a1.5 1.5 0 1 1 2.627-.014l2.785 2.785h2.9a3 3 0 0 1 3 3v10a3 3 0 0 1-3 3zm-1.5-13v10a1.5 1.5 0 0 0 1.5 1.5h14a1.5 1.5 0 0 0 1.5-1.5v-10a1.5 1.5 0 0 0-1.5-1.5h-14a1.5 1.5 0 0 0-1.5 1.503zm6.555-3.017h3.9l-1.947-1.947zm1.947 11.762a.75.75 0 1 1 0-1.5h5a.75.75 0 0 1 0 1.5zm-5-3a.75.75 0 1 1 0-1.5h5a.751.751 0 0 1 0 1.5zm0-3a.75.75 0 1 1 0-1.5h5a.75.75 0 0 1 0 1.5z" transform="translate(-20656.297 -14180.484)" style="fill:#fff"/>
    </g>
</svg>
