<svg id="ic_snb_works_info" xmlns="http://www.w3.org/2000/svg" width="48" height="44">
    <defs>
        <style>
            .cls-2{opacity:0;fill:rgba(255,0,255,.3)}.cls-3{fill:#fff}
        </style>
    </defs>
    <g id="icon" transform="translate(11 10)">
        <path id="합치기_1174" data-name="합치기 1174" class="cls-3" d="M20340 14213.5v-.006h-4a3 3 0 0 1-3-3v-13.994a3 3 0 0 1 3-3h1.828a2.266 2.266 0 0 0-.65.87 2.249 2.249 0 0 1 2.07-1.37h5.5a2.254 2.254 0 0 1 2.1 1.422 2.262 2.262 0 0 0-.676-.922h1.828a3 3 0 0 1 3 3v6.246a.751.751 0 1 1-1.5 0v-6.246a1.5 1.5 0 0 0-1.5-1.507h-1.016a2.208 2.208 0 0 1 .016.256 2.256 2.256 0 0 1-2.254 2.252h-5.5a2.251 2.251 0 0 1-2.246-2.252 2.21 2.21 0 0 1 .014-.256H20336a1.505 1.505 0 0 0-1.5 1.507v13.994a1.5 1.5 0 0 0 1.5 1.507h5.25a.751.751 0 1 1 0 1.5zm-1.5-18.249a.752.752 0 0 0 .75.751h5.5a.751.751 0 1 0 0-1.5h-5.5a.751.751 0 0 0-.75.748zm8.381-.732-.006-.014zm-.018-.046a.366.366 0 0 0-.016-.042.366.366 0 0 1 .012.041zm-5.611 10.528v-1.752h-1.746a.748.748 0 1 1 0-1.5h1.746V14200a.748.748 0 1 1 1.5 0v1.752h1.752a.748.748 0 1 1 0 1.5h-1.752v1.748a.748.748 0 1 1-1.5 0z" transform="translate(-20329 -14191.5)"/>
        <g id="setting" transform="translate(1)">
            <path id="빼기_11" data-name="빼기 11" class="cls-3" d="M129.475 909.5h-1.945a.512.512 0 0 1-.51-.429l-.162-1.105a3.754 3.754 0 0 1-.615-.347l-1.072.418a.547.547 0 0 1-.185.032.518.518 0 0 1-.448-.252l-.971-1.635a.5.5 0 0 1 .125-.642l.908-.692a3.861 3.861 0 0 1 0-.697l-.9-.692a.486.486 0 0 1-.126-.642l.971-1.638a.505.505 0 0 1 .442-.252.512.512 0 0 1 .185.034l1.077.42a4.016 4.016 0 0 1 .611-.346l.165-1.112a.5.5 0 0 1 .507-.424h1.945a.5.5 0 0 1 .505.43l.162 1.105a3.776 3.776 0 0 1 .615.346l1.072-.417a.552.552 0 0 1 .187-.032.51.51 0 0 1 .448.255l.968 1.632a.493.493 0 0 1-.125.641l-.907.692c.01.121.02.235.02.351s-.01.231-.02.346l.907.692a.49.49 0 0 1 .131.633l-.978 1.646a.506.506 0 0 1-.442.252.518.518 0 0 1-.189-.036l-1.072-.418a3.911 3.911 0 0 1-.615.347l-.165 1.111a.5.5 0 0 1-.504.425zm-.976-6.921a1.922 1.922 0 1 0 1.923 1.922 1.923 1.923 0 0 0-1.922-1.922z" transform="translate(-110.5 -886.5)"/>
        </g>
    </g>
</svg>
