<svg id="ic_snb_video" xmlns="http://www.w3.org/2000/svg" width="48" height="44">
    <defs>
        <style>
            .cls-3{fill:#fff}
        </style>
    </defs>
    <g id="icon" transform="translate(12 10)">
        <g id="ic_" transform="translate(-421.012 -1473.641)">
            <path id="합치기_1176" data-name="합치기 1176" class="cls-3" d="M20689.012 15684.64a4 4 0 0 1-4-4v-10a4 4 0 0 1 4-4h10a4 4 0 0 1 4 4v.875l.7-.6a1.977 1.977 0 0 1 1.295-.483 2.079 2.079 0 0 1 1.393.551 2 2 0 0 1 .617 1.45v6.418a2 2 0 0 1-.617 1.45 2.079 2.079 0 0 1-1.393.551 1.972 1.972 0 0 1-1.295-.483l-.7-.6v.869a4 4 0 0 1-4 4zm-2.5-14v10a2.5 2.5 0 0 0 2.5 2.5h10a2.5 2.5 0 0 0 2.5-2.5v-10a2.5 2.5 0 0 0-2.5-2.5h-10a2.5 2.5 0 0 0-2.5 2.5zm18.172 1.414-1.637 1.4v4.371l1.637 1.4a.484.484 0 0 0 .318.124.552.552 0 0 0 .363-.146.486.486 0 0 0 .145-.358v-6.418a.469.469 0 0 0-.145-.354.534.534 0 0 0-.363-.15.48.48 0 0 0-.318.131z" transform="translate(-20263 -14190)"/>
            <path id="합치기_1175" data-name="합치기 1175" class="cls-3" d="M20693.51 15676.89v-.551a1.775 1.775 0 0 0-1.838-1.7h-2.82a1.773 1.773 0 0 0-1.838 1.7v.551a.751.751 0 1 1-1.5 0v-.551a3.276 3.276 0 0 1 3.34-3.2h2.82a3.276 3.276 0 0 1 3.34 3.2v.551a.751.751 0 1 1-1.5 0zm-6-7a2.75 2.75 0 1 1 2.748 2.753 2.753 2.753 0 0 1-2.746-2.754zm1.5 0a1.25 1.25 0 1 0 1.248-1.247 1.253 1.253 0 0 0-1.246 1.246z" transform="translate(-20259.25 -14186.75)"/>
        </g>
    </g>
</svg>
