<svg id="ic_snb_attendance" xmlns="http://www.w3.org/2000/svg" width="48" height="44">
    <defs>
        <style>
            .cls-3{fill:#fff}
        </style>
    </defs>
    <g id="icon" transform="translate(12 10)">
        <path id="area-2" data-name="area" style="opacity:.004;fill:rgba(255,0,255,.3)" d="M0 0h24v24H0z"/>
        <g id="bag" transform="translate(-531.581 -684.252)">
            <path id="합치기_1169" data-name="합치기 1169" class="cls-3" d="M21138.576 14895.755a3 3 0 0 1-2.994-3v-10a3 3 0 0 1 1.664-2.687 2.971 2.971 0 0 1 1.33-.313h3.006v-.5a2 2 0 0 1 2-2h4a2 2 0 0 1 2 2v.5h3.076a3 3 0 0 1 2.922 3v3.748a.751.751 0 0 1-1.5 0v-1.248h-6.5v.5a1 1 0 0 1-1 1h-2a1 1 0 0 1-1-1v-.5h-6.5v8a1 1 0 0 0 .992 1h6.754a.749.749 0 0 1 0 1.5h-.25zm15.5-12v-1a1.5 1.5 0 0 0-1.5-1.5h-14a1.5 1.5 0 0 0-1.5 1.381v1.12zm-11-4.5v.5h5v-.5a.5.5 0 0 0-.5-.5h-4a.508.508 0 0 0-.496.499z" transform="translate(-20602 -14190.5)"/>
        </g>
        <g id="check">
            <path id="빼기_643" data-name="빼기 643" class="cls-3" d="M20609 14203a5 5 0 1 1 5-5 5 5 0 0 1-5 5zm0-8.147a.751.751 0 0 0-.75.75v2.3a.23.23 0 0 0 .006.063.73.73 0 0 0 .33.688l1.895 1.268a.767.767 0 0 0 .418.124.742.742 0 0 0 .621-.336.734.734 0 0 0 .113-.559.749.749 0 0 0-.32-.481l-1.562-1.04v-2.022a.751.751 0 0 0-.751-.756z" transform="translate(-20591 -14180)"/>
        </g>
    </g>
</svg>
