<svg xmlns="http://www.w3.org/2000/svg" width="48" height="44">
    <path data-name="합치기 1162" d="M22526 14840a3 3 0 0 1-3-3v-12a3 3 0 0 1 3-3h12a3 3 0 0 1 3 3v12a3.006 3.006 0 0 1-3 3zm-1.5-15v12a1.5 1.5 0 0 0 1.5 1.5h12a1.5 1.5 0 0 0 1.5-1.5v-12a1.5 1.5 0 0 0-1.5-1.5h-1v.5a2 2 0 0 1-2 2h-6a2 2 0 0 1-2-2v-.5h-1a1.5 1.5 0 0 0-1.5 1.5zm4-1a.5.5 0 0 0 .5.5h6a.505.505 0 0 0 .5-.5v-.5h-7zm2.035 10.517-2.336-2.5a.751.751 0 0 1 1.1-1.024l1.787 1.912 4.119-4.412a.75.75 0 0 1 1.1 1.023l-4.668 5a.753.753 0 0 1-1.1 0z" transform="translate(-22508 -14809)" style="fill:#fff"/>
</svg>
