<svg xmlns="http://www.w3.org/2000/svg" width="48" height="44">
    <g data-name="그룹 54358">
        <path data-name="합치기 1161" d="M21947 14574.25a3 3 0 0 1-3-3v-12a3 3 0 0 1 3-3h1.25v-.5a.75.75 0 0 1 1.5 0v.5h6.5v-.5a.749.749 0 1 1 1.5 0v.5h1.25a3 3 0 0 1 3 3v12a3 3 0 0 1-3 3zm-1.5-3a1.5 1.5 0 0 0 1.5 1.5h12a1.5 1.5 0 0 0 1.5-1.5v-9.25h-15zm15-10.754v-1.245a1.5 1.5 0 0 0-1.5-1.5h-1.252v1a.749.749 0 1 1-1.5 0v-1h-6.5v1a.75.75 0 0 1-1.5 0v-1H21947a1.506 1.506 0 0 0-1.5 1.5v1.245zm-4.25 9.5v-1.5h1.5v1.5zm-4 0v-1.5h1.5v1.5zm-4 0v-1.5h1.5v1.5zm8-4v-1.5h1.5v1.5zm-4 0v-1.5h1.5v1.5zm-4 0v-1.5h1.5v1.5z" transform="translate(-21929 -14543.25)" style="fill:#fff"/>
    </g>
</svg>
