<svg xmlns="http://www.w3.org/2000/svg" width="48" height="44">
    <path data-name="area" transform="translate(12 10)" style="opacity:.003;fill:#fff" d="M0 0h24v24H0z"/>
    <path data-name="합치기 1164" d="M21252 14525a3 3 0 0 1-3-3v-12.094a.08.08 0 0 0 0-.021v-.093a2.981 2.981 0 0 1 .26-1.031c.041-.091.086-.18.135-.266a2.988 2.988 0 0 1 .691-.813l.035-.027a.266.266 0 0 1 .031-.024 2.666 2.666 0 0 1 .313-.213l.037-.021.014-.008a2.981 2.981 0 0 1 1.473-.385h14a2.986 2.986 0 0 1 1.748.562l.043.031a.043.043 0 0 1 .01.008 2.653 2.653 0 0 1 .26.219 2.98 2.98 0 0 1 .932 1.97v12.211a3 3 0 0 1-3 3zm-1.5-3a1.5 1.5 0 0 0 1.5 1.5h14a1.5 1.5 0 0 0 1.5-1.5v-9.771l-7.531 5.025a1.753 1.753 0 0 1-1.943 0l-7.525-5.022zm8.357-5.994a.292.292 0 0 0 .141.043.275.275 0 0 0 .139-.043l8.363-5.573v-.433a1.5 1.5 0 0 0-1.5-1.5h-14a1.5 1.5 0 0 0-1.5 1.5v.433z" transform="translate(-21235 -14494)" style="fill:#fff"/>
</svg>
