<svg xmlns="http://www.w3.org/2000/svg" width="48" height="44">
    <path data-name="합치기 1166" d="M20743.334 14213a3.165 3.165 0 0 1-2.279-1 3.5 3.5 0 0 1-1.057-2.5v-.187a4.413 4.413 0 0 1 .068-.745l1.365-12.775a2.794 2.794 0 0 1 3.053-2.8h11.029a2.8 2.8 0 0 1 3.059 2.8l1.359 12.775a4.22 4.22 0 0 1 .068.745v.183a3.481 3.481 0 0 1-1.025 2.474 3.162 3.162 0 0 1-2.309 1.027zm.166-1.5h13a2 2 0 0 0 1.428-.6 2.376 2.376 0 0 0 .572-1.486 2 2 0 0 0-2-1.911h-13a2 2 0 0 0-2 1.911 2.374 2.374 0 0 0 .57 1.486 2 2 0 0 0 1.43.6zm13-5.5a3.476 3.476 0 0 1 1.7.439l-1.115-10.479a2 2 0 0 0-.437-1.141 1.618 1.618 0 0 0-1.131-.323h-11.029a1.6 1.6 0 0 0-1.125.323 1.962 1.962 0 0 0-.437 1.141l-1.119 10.479a3.484 3.484 0 0 1 1.7-.438zm-1.5 3.5a.75.75 0 1 1 .75.75.75.75 0 0 1-.75-.75zm-2.5 0a.75.75 0 1 1 .75.75.749.749 0 0 1-.75-.75zm-8-9a3 3 0 1 1 3 3 3.009 3.009 0 0 1-3-3zm1.715 0a1.286 1.286 0 1 0 1.287-1.287 1.29 1.29 0 0 0-1.287 1.287zm5.783 2.5a.5.5 0 0 1 0-1h3a.5.5 0 0 1 0 1zm0-2a.5.5 0 0 1 0-1h3a.5.5 0 0 1 0 1zm0-2a.5.5 0 0 1 0-1h3a.5.5 0 1 1 0 1z" transform="translate(-20726 -14181)" style="fill:#fff"/>
</svg>
