<svg xmlns="http://www.w3.org/2000/svg" width="22" height="22">
    <g data-name="패스 14190" style="fill:none">
        <path d="M102.2 110.707a2.215 2.215 0 0 0-.456-.069h-10.5a2.168 2.168 0 0 0-.467.069 1.793 1.793 0 0 0-1.282 1.708v15.524a.641.641 0 0 0 .26.506.96.96 0 0 0 .581.192.894.894 0 0 0 .559-.19l5.6-4.014 5.6 4.014a.893.893 0 0 0 .56.189.786.786 0 0 0 .837-.7v-15.5a1.8 1.8 0 0 0-1.292-1.729z" style="stroke:none" transform="translate(-85.496 -108.639)"/>
        <path d="M91.281 112.138a.66.66 0 0 0-.099.014.295.295 0 0 0-.186.272v14.106l5.502-3.943 5.498 3.94V112.44a.301.301 0 0 0-.193-.287.717.717 0 0 0-.1-.015H91.281m-.036-1.5h10.502c.153.007.306.03.456.069.765.22 1.292.927 1.293 1.731v15.5a.786.786 0 0 1-.837.698.895.895 0 0 1-.56-.19l-5.601-4.013-5.602 4.014a.894.894 0 0 1-.559.19.955.955 0 0 1-.581-.192.64.64 0 0 1-.26-.506v-15.524a1.793 1.793 0 0 1 1.282-1.708c.153-.04.309-.063.467-.069z" style="fill:#777;stroke:none" transform="translate(-85.496 -108.639)"/>
    </g>
    <path data-name="패스 54804" d="m98.28 115.892-1.312 1.279.31 1.805a.212.212 0 0 1-.211.249.2.2 0 0 1-.1-.025l-1.622-.853-1.622.853a.214.214 0 0 1-.311-.226l.309-1.806-1.312-1.279a.213.213 0 0 1 .119-.365l1.813-.264.811-1.643a.224.224 0 0 1 .3-.081.228.228 0 0 1 .081.081l.81 1.645 1.813.263a.214.214 0 0 1 .119.366z" transform="translate(-84.344 -107.508)" style="fill:#777"/>
</svg>
