<svg xmlns="http://www.w3.org/2000/svg" width="14" height="14">
    <path data-name="패스 54053" d="M414.438 320.517h-.067a.9.9 0 0 1-.167-.01 8.84 8.84 0 0 1-8.562-8.814 2.064 2.064 0 0 1 2.075-2.048 1.9 1.9 0 0 1 .614.1 1.807 1.807 0 0 1 .525.238.288.288 0 0 1 .127.2l.586 2.279a.271.271 0 0 1 .009.072.3.3 0 0 1-.091.216l-.914.739a6.059 6.059 0 0 0 4.145 3.975l.86-.821a.3.3 0 0 1 .281-.076l2.05.55a.3.3 0 0 1 .164.1 1.751 1.751 0 0 1 .257.427 1.905 1.905 0 0 1 .186.837 2.067 2.067 0 0 1-2.023 2.044.516.516 0 0 1-.055-.008z" transform="translate(-404.08 -307.95)" style="fill:#ced2d8"/>
</svg>
