<svg xmlns="http://www.w3.org/2000/svg" width="14.047" height="14" viewBox="0 0 14.047 14">
    <path data-name="빼기 85" d="M9279.145 1989h-2.284a.755.755 0 0 1-.736-.589l-.18-1.246a4.948 4.948 0 0 1-.605-.344l-1.181.462a.776.776 0 0 1-.267.048.751.751 0 0 1-.644-.353l-1.145-1.923a.738.738 0 0 1 .172-.951l1-.766c-.009-.107-.013-.219-.013-.333s0-.225.013-.333l-.992-.759a.751.751 0 0 1-.183-.96l1.141-1.914a.753.753 0 0 1 .645-.363.732.732 0 0 1 .263.049l1.192.464a4.818 4.818 0 0 1 .6-.344l.174-1.211a.764.764 0 0 1 .736-.633h2.287a.755.755 0 0 1 .731.59l.185 1.246a4.6 4.6 0 0 1 .6.344l1.184-.463a.764.764 0 0 1 .269-.048.75.75 0 0 1 .642.354l1.144 1.921a.749.749 0 0 1-.173.953l-1 .768c.008.117.013.229.013.331s0 .217-.013.333l.992.759a.742.742 0 0 1 .186.955l-1.144 1.919a.759.759 0 0 1-.646.362.736.736 0 0 1-.262-.048l-1.192-.465a4.806 4.806 0 0 1-.6.342l-.177 1.213a.764.764 0 0 1-.732.633zm-1.143-8.306a2.307 2.307 0 1 0 2.309 2.308 2.311 2.311 0 0 0-2.311-2.308z" transform="translate(-9271.455 -1976.5)" style="fill:none;stroke:#7b7b7b;stroke-linecap:round;stroke-linejoin:round;stroke-miterlimit:10"/>
</svg>
