<svg xmlns="http://www.w3.org/2000/svg" width="14" height="14.002">
    <path data-name="합치기 1173" d="M20854 17451.5a1.506 1.506 0 0 1-1.5-1.5v-9a1.507 1.507 0 0 1 1.5-1.508h.5v.006a1.5 1.5 0 0 0 1.5 1.5h4a1.5 1.5 0 0 0 1.5-1.5v-.006h.5a1.506 1.506 0 0 1 1.5 1.508v9a1.5 1.5 0 0 1-1.5 1.5zm1-4.393h2.143v2.146h1.711v-2.146h2.146v-1.713h-2.148v-2.146h-1.711v2.146H20855zm1-7.111a.5.5 0 0 1-.5-.5v-1a.5.5 0 0 1 .5-.5h4a.5.5 0 0 1 .5.5v1a.5.5 0 0 1-.5.5z" transform="translate(-20851 -17437.5)" style="fill:#ced2d8"/>
</svg>
