<svg xmlns="http://www.w3.org/2000/svg" width="14" height="14">
    <path data-name="합치기 1177" d="m16735.285 18132.541.127-2.162 4.27-1.979a.834.834 0 0 0 .492-.633.735.735 0 0 0-.238-.65l-.045-.033-.041-.041a4.387 4.387 0 0 1-1.26-3.266v-1.348a3.049 3.049 0 0 1 .938-2.166 3.477 3.477 0 0 1 4.836 0 3.089 3.089 0 0 1 .943 2.217v1.318a4.39 4.39 0 0 1-1.193 3.186l-.035.037-.047.031a.775.775 0 0 0 .156 1.338l.027.01 4.359 2v2.139z" transform="translate(-16734.949 -18118.912)" style="fill:#068599"/>
</svg>
