<svg xmlns="http://www.w3.org/2000/svg" width="42" height="42">
    <defs>
        <style>
            .cls-2{opacity:0;fill:#2654ff}.cls-4{fill:#e0e0e0}
        </style>
    </defs>
    <g id="img_empty_data_s" transform="translate(-508 -468)">
        <g id="그룹_2419" data-name="그룹 2419">
            <path id="패스_3047" data-name="패스 3047" d="M543.987 476.937a.944.944 0 0 0-.051-.257c-.011-.032-.019-.063-.033-.094a1 1 0 0 0-.2-.293l-7-7a1 1 0 0 0-.293-.2c-.031-.014-.061-.022-.093-.033a1.008 1.008 0 0 0-.261-.052c-.02 0-.039-.012-.06-.012H515a3 3 0 0 0-3 3v32a3 3 0 0 0 3 3h20.721c-.65-.572 8.279-13.413 8.279-13.413V477c0-.022-.011-.041-.013-.063z" style="fill:#fafafa"/>
            <path id="패스_2972" data-name="패스 2972" class="cls-4" d="M536 482h-16a1 1 0 0 0 0 2h16a1 1 0 0 0 0-2z"/>
            <path id="패스_2973" data-name="패스 2973" class="cls-4" d="M536 488h-16a1 1 0 0 0 0 2h16a1 1 0 0 0 0-2z"/>
            <path id="패스_2974" data-name="패스 2974" class="cls-4" d="M520 494a1 1 0 0 0 0 2h9a1 1 0 0 0 0-2z"/>
            <path id="패스_2975" data-name="패스 2975" class="cls-4" d="M543.987 476.937a.944.944 0 0 0-.051-.257c-.011-.032-.019-.063-.033-.094a1 1 0 0 0-.2-.293l-7-7a1 1 0 0 0-.293-.2c-.031-.014-.061-.022-.093-.033a1.008 1.008 0 0 0-.261-.052c-.02 0-.039-.012-.06-.012H515a3 3 0 0 0-3 3v32a3 3 0 0 0 3 3h20.721a8.021 8.021 0 0 1-1.642-2H515a1 1 0 0 1-1-1V472a1 1 0 0 1 1-1h20v6a1 1 0 0 0 1 1h6v15.069a7.909 7.909 0 0 1 2 .518V477c0-.022-.011-.041-.013-.063z"/>
        </g>
        <circle id="타원_650" data-name="타원 650" cx="8" cy="8" r="8" transform="translate(533 493)" style="fill:#fff"/>
        <path id="패스_2971" data-name="패스 2971" d="M541 493a8 8 0 1 0 8 8 8 8 0 0 0-8-8zm3.707 10.293a1 1 0 1 1-1.414 1.414L541 502.414l-2.293 2.293a1 1 0 0 1-1.414-1.414l2.293-2.293-2.293-2.293a1 1 0 0 1 1.414-1.414l2.293 2.293 2.293-2.293a1 1 0 0 1 1.414 1.414L542.414 501z" style="fill:#c4c4c4"/>
    </g>
</svg>
