<svg id="img_empty_rx_check_s" xmlns="http://www.w3.org/2000/svg" width="42" height="42">
    <defs>
        <style>
            .cls-2{opacity:0;fill:#2654ff}.cls-4,.cls-5{fill:#e0e0e0}.cls-5{stroke:#e0e0e0;stroke-width:.5px}
        </style>
    </defs>
    <g id="그룹_2419" data-name="그룹 2419" transform="translate(-508 -468)">
        <path id="패스_3047" data-name="패스 3047" d="M543.987 476.937a.944.944 0 0 0-.051-.257c-.011-.032-.019-.063-.033-.094a1 1 0 0 0-.2-.293l-7-7a1 1 0 0 0-.293-.2c-.031-.014-.061-.022-.093-.033a1.008 1.008 0 0 0-.261-.052c-.02 0-.039-.012-.06-.012H515a3 3 0 0 0-3 3v32a3 3 0 0 0 3 3h20.721c-.65-.572 8.279-13.413 8.279-13.413V477c0-.022-.011-.041-.013-.063z" style="fill:#fafafa"/>
        <path id="패스_2975" data-name="패스 2975" class="cls-4" d="M543.987 476.937a.944.944 0 0 0-.051-.257c-.011-.032-.019-.063-.033-.094a1 1 0 0 0-.2-.293l-7-7a1 1 0 0 0-.293-.2c-.031-.014-.061-.022-.093-.033a1.008 1.008 0 0 0-.261-.052c-.02 0-.039-.012-.06-.012H515a3 3 0 0 0-3 3v32a3 3 0 0 0 3 3h20.721a8.021 8.021 0 0 1-1.642-2H515a1 1 0 0 1-1-1V472a1 1 0 0 1 1-1h20v6a1 1 0 0 0 1 1h6v15.069a7.909 7.909 0 0 1 2 .518V477c0-.022-.011-.041-.013-.063z"/>
        <path id="패스_65205" data-name="패스 65205" class="cls-5" d="M-4.448-12.16v6.8h1.211v-2.592h.97l1.6 2.593H.73L-.962-8.081a1.963 1.963 0 0 0 1.435-1.984 2.077 2.077 0 0 0-2.344-2.1zm2.49.97A1.116 1.116 0 0 1-.73-10.065 1.116 1.116 0 0 1-1.958-8.94h-1.28v-2.25z" transform="translate(523.948 487.858)"/>
        <path id="패스_65206" data-name="패스 65206" class="cls-5" d="m-4.108-5.359 1.529-2.465 1.537 2.465H.306l-2.215-3.546L.117-12.16h-1.348l-1.348 2.173-1.348-2.173h-1.349l2.018 3.255-2.2 3.547z" transform="translate(530.456 492.358)"/>
        <path id="패스_65207" data-name="패스 65207" class="cls-4" d="M536 488h-16a1 1 0 0 0 0 2h16a1 1 0 0 0 0-2z" transform="translate(0 3)"/>
        <path id="패스_65208" data-name="패스 65208" class="cls-4" d="M520 494a1 1 0 0 0 0 2h9a1 1 0 0 0 0-2z" transform="translate(0 3)"/>
    </g>
    <circle id="타원_650" data-name="타원 650" cx="8" cy="8" r="8" transform="translate(25 25)" style="fill:#fff"/>
    <path id="패스_65212" data-name="패스 65212" d="M541 731a8 8 0 1 0 8 8 8 8 0 0 0-8-8zm4.707 6.707-5 5a1 1 0 0 1-1.414 0l-3-3a1 1 0 0 1 1.414-1.414l2.293 2.293 4.293-4.293a1 1 0 0 1 1.414 1.414z" transform="translate(-508 -706)" style="fill:#c4c4c4"/>
</svg>
