<svg xmlns="http://www.w3.org/2000/svg" width="18" height="18">
    <g transform="translate(-4672 -4918)">
        <rect data-name="사각형 2591" width="12" height="12" rx="1" transform="translate(4675 4922)" style="fill:#d9d9d9"/>
        <path data-name="사각형 2596" d="M1 0h10a1 1 0 0 1 1 1v2H0V1a1 1 0 0 1 1-1z" transform="translate(4675 4920)" style="fill:#707070"/>
        <g data-name="합치기 86" style="fill:#fff">
            <path d="M11552.5 21539a.5.5 0 0 1-.5-.5.5.5 0 0 1 .5-.5h7a.5.5 0 0 1 .5.5.506.506 0 0 1-.5.5zm0-2a.5.5 0 0 1 0-1h7a.5.5 0 1 1 0 1zm0-2a.5.5 0 0 1 0-1h7a.5.5 0 1 1 0 1z" style="stroke:none" transform="translate(-6875 -16608)"/>
            <path d="M11559.499 21539.002h-7.001a.502.502 0 0 1-.497-.504c0-.275.222-.496.497-.496h7.001a.5.5 0 1 1 0 1zm0-2.002h-7.001a.5.5 0 0 1 0-1h7.001c.275 0 .502.223.502.498a.504.504 0 0 1-.502.502zm0-2h-7.001a.5.5 0 0 1 0-1h7.001c.275 0 .502.223.502.498a.504.504 0 0 1-.502.502z" style="fill:#707070;stroke:none" transform="translate(-6875 -16608)"/>
        </g>
    </g>
</svg>
