<svg xmlns="http://www.w3.org/2000/svg" width="18" height="18">
    <path data-name="합치기 1169" d="M19726 16794.078v-2.443l-3.244-2.248a2.711 2.711 0 0 1-1.258-2.416v-2.986a1.773 1.773 0 0 1 1.768-1.773h.957v-.051a.5.5 0 0 1 1 0v1.521a.5.5 0 0 1-1 0v-.471h-.957a.774.774 0 0 0-.771.773v2.986a1.736 1.736 0 0 0 .816 1.59h.006l3.1 2.135 3.1-2.139a1.736 1.736 0 0 0 .816-1.59v-2.986a.774.774 0 0 0-.771-.773h-1.234v.461a.5.5 0 0 1-1 0v-1.525a.5.5 0 0 1 1 0v.064h1.234a1.773 1.773 0 0 1 1.768 1.773v2.986a2.716 2.716 0 0 1-1.254 2.416l-3.08 2.131v2.561a2.882 2.882 0 0 0 5.76 0v-.387a2.035 2.035 0 1 1 1-.076v.463a3.877 3.877 0 0 1-7.752 0zm6.063-2.393a1.038 1.038 0 1 0 1.041-1.035 1.039 1.039 0 0 0-1.045 1.036zm-5.635-.535-.014-.021-.014.021z" transform="translate(-19718.992 -16780.648)" style="fill:#7b7b7b"/>
</svg>
