<svg xmlns="http://www.w3.org/2000/svg" width="18" height="18">
    <g style="fill:#9ce2eb">
        <path d="M-1566.5-2520.5h-11c-.551 0-1-.449-1-1v-11.448c0-.304.22-.552.492-.552h3.545c.223 0 .434.094.597.264l1.103 1.286c.158.182.355.324.571.413l.091.037h5.601c.551 0 1 .449 1 1v9c0 .551-.449 1-1 1z" style="stroke:none" transform="translate(1581 2536)"/>
        <path d="M-1566.5-2521a.5.5 0 0 0 .5-.5v-9a.5.5 0 0 0-.5-.5h-5.699l-.182-.074a2.03 2.03 0 0 1-.758-.546l-.004-.005-1.092-1.273a.325.325 0 0 0-.228-.102h-3.523a.092.092 0 0 0-.014.052v11.448a.5.5 0 0 0 .5.5h11m0 1h-11a1.5 1.5 0 0 1-1.5-1.5v-11.448c0-.58.444-1.052.992-1.052h3.545c.363 0 .712.155.969.429l1.11 1.296c.106.122.237.216.382.275h5.502a1.5 1.5 0 0 1 1.5 1.5v9a1.5 1.5 0 0 1-1.5 1.5z" style="fill:#08b6ce;stroke:none" transform="translate(1581 2536)"/>
    </g>
</svg>
