<svg xmlns="http://www.w3.org/2000/svg" width="18" height="18">
    <path data-name="합치기 1167" d="M19510 16264.5v-3.376h.023l.012-.066a.046.046 0 0 1 0-.017c0-.028.01-.057.016-.085l.006-.032c0-.022.01-.046.014-.068a.355.355 0 0 0 .01-.044c0-.017.01-.033.014-.049l.016-.063a.029.029 0 0 0 0-.011c.469-1.643 2.32-2.971 4.748-3.471h.006l.146-.029h.012l.137-.025h.029l.125-.021.043-.007.113-.017.057-.008.107-.015.059-.007.105-.013.066-.007.1-.01.072-.007.1-.008.082-.006.088-.007H19517.601l.1.006h.066l.105.008.068.006.1.01.064.006.107.012.061.007.109.014.055.008.113.016.053.008.115.018.049.009.117.02.047.009.123.024.035.006.133.028.025.006.146.032h.01c2.5.59 4.338 2.072 4.57 3.847h.02v.226a1.41 1.41 0 0 1 .006.157 1.437 1.437 0 0 1-.006.156v2.837c0 2.489-3.135 4.5-7 4.5s-6.992-2.023-6.992-4.507zm1 0a3.047 3.047 0 0 0 1.588 2.343 8.945 8.945 0 0 0 8.814 0 3.062 3.062 0 0 0 1.594-2.343v-.677a9.346 9.346 0 0 1-12 .006zm1.588-.656a8.224 8.224 0 0 0 4.41 1.161 8.94 8.94 0 0 0 3.326-.607l-7.357-5.453c-.07.038-.141.077-.207.117a3.21 3.21 0 0 0-1.744 2.2l-.016.112v.273a3.131 3.131 0 0 0 1.592 2.192zm8.734.051c.027-.017.055-.033.08-.051a2.514 2.514 0 0 0 0-4.68l-.088-.056-.078-.047a8.183 8.183 0 0 0-3.791-1.048h-.748a9.085 9.085 0 0 0-2.682.475z" transform="translate(-19508 -16254)" style="fill:#08b6ce"/>
</svg>
