<svg xmlns="http://www.w3.org/2000/svg" width="18" height="18">
    <path data-name="합치기 1170" d="M19377.625 17833a1.612 1.612 0 0 1-1.625-1.6v-12.8a1.611 1.611 0 0 1 1.625-1.6h7.922c2.219 2.184.816.764 3.455 3.357v11.041a1.613 1.613 0 0 1-1.625 1.6zm-.623-14.4v12.8a.61.61 0 0 0 .623.6h9.752a.612.612 0 0 0 .621-.6v-9.9h-2.34a1.117 1.117 0 0 1-1.158-1.187V17818h-6.875a.614.614 0 0 0-.625.6zm8.5 1.713a.276.276 0 0 0 .033.156.241.241 0 0 0 .123.033h2.063a72.776 72.776 0 0 0-1.318-1.275c-.187-.178-.367-.346-.9-.867zm-6 7.688a.5.5 0 0 1 0-1h6a.5.5 0 1 1 0 1zm0-2a.5.5 0 0 1 0-1h6a.5.5 0 1 1 0 1zm0-2a.5.5 0 0 1 0-1h6a.5.5 0 1 1 0 1z" transform="translate(-19374 -17816)" style="fill:#08b6ce"/>
</svg>
