<svg xmlns="http://www.w3.org/2000/svg" width="18" height="18">
    <path data-name="합치기 1168" d="M19440.006 16275.22a.5.5 0 0 1-.186-.684l1.25-2.163.02-.031a3.5 3.5 0 0 1-.863-4.5l4.25-7.36-.434-.25a.5.5 0 0 1 .5-.869l3.031 1.752 1-1.735-1.6-.925a.5.5 0 1 1 .5-.864l2 1.151.039.021.041.025 1.994 1.151a.5.5 0 1 1-.5.864l-1.6-.923-1 1.734 1.355.783 1.246.719.43.248a.5.5 0 1 1-.5.864l-.432-.249-4.25 7.362a3.5 3.5 0 0 1-4.332 1.5l-.018.034-1.25 2.158a.5.5 0 0 1-.436.251.507.507 0 0 1-.255-.064zm1.084-6.879a2.5 2.5 0 1 0 4.33 2.5l4.252-7.357-2.119-1.226a.38.38 0 0 1-.049-.024.333.333 0 0 1-.043-.029l-2.121-1.223-1 1.729 2.162 1.251a.492.492 0 0 1 .186.679.5.5 0 0 1-.684.186l-2.164-1.249-.752 1.3 2.164 1.248a.5.5 0 1 1-.5.868l-2.164-1.253-.752 1.3 2.164 1.249a.5.5 0 1 1-.5.864l-2.166-1.249z" transform="translate(-19436.457 -16257.457)" style="fill:#7b7b7b"/>
</svg>
