<svg xmlns="http://www.w3.org/2000/svg" width="14" height="14">
    <defs>
        <style>
            .cls-2{fill:#ced2d8}
        </style>
    </defs>
    <g id="ic_title_body" transform="translate(0 -1)">
        <g id="_18" data-name="18" transform="translate(-1056.115 -1276.39)">
            <path id="패스_55489" data-name="패스 55489" class="cls-2" d="M440.339 150.834c-.057.28-.111.56-.173.838-.025.113-.074.22-.1.332-.025.095-.073.126-.175.125-1.284 0-2.567 0-3.851-.006a.2.2 0 0 0-.205.13c-.3.6-.6 1.2-.9 1.806-.018.037-.038.073-.069.132l-2.126-5.174c-.034.053-.059.088-.08.125q-.836 1.436-1.67 2.874a.194.194 0 0 1-.194.114h-2.779c-.062 0-.115.007-.145-.076a4.209 4.209 0 0 1 .453-3.991 3.141 3.141 0 0 1 2.411-1.365 3.416 3.416 0 0 1 3.055 1.376c.054.063.1.129.164.2.026-.03.051-.056.072-.083a3.829 3.829 0 0 1 1.855-1.368 3.354 3.354 0 0 1 4.078 1.861 4.28 4.28 0 0 1 .355 1.38 1.193 1.193 0 0 0 .023.121z" transform="translate(629.161 1132.786)"/>
            <path id="패스_55490" data-name="패스 55490" class="cls-2" d="M458.3 322.862h2.964a.2.2 0 0 0 .2-.12c.332-.579.67-1.156 1.006-1.733l.086-.144 2.191 5.332.791-1.59.82-1.649a.145.145 0 0 1 .147-.1h2.928c.028 0 .055 0 .107.01-.113.181-.213.351-.323.516a15.883 15.883 0 0 1-2.6 2.913 25.131 25.131 0 0 1-2.429 1.945c-.243.171-.315.172-.555 0a23.49 23.49 0 0 1-3.874-3.388 11.654 11.654 0 0 1-1.395-1.86.47.47 0 0 0-.064-.132z" transform="translate(599.193 962.943)"/>
        </g>
    </g>
</svg>
