<svg xmlns="http://www.w3.org/2000/svg" width="18" height="18">
    <path data-name="합치기 1174" d="M18357.5 16802a.5.5 0 0 1 0-1h10a.5.5 0 1 1 0 1zm7.5-1v-2h-5v2h-1v-2h-3.061a.971.971 0 0 1-.941-1v-10a.971.971 0 0 1 .941-1h13.125a.97.97 0 0 1 .936 1v10a.97.97 0 0 1-.936 1H18366v2zm-9.059-3h13.125v-10h-13.125zm6.676-1.223a.5.5 0 0 1-.453-.285l-1.8-3.785-.66.986a.5.5 0 0 1-.414.221h-2.29a.5.5 0 1 1 0-1h2.023l1-1.5a.507.507 0 0 1 .871.064l1.654 3.486 1.891-5.385a.489.489 0 0 1 .479-.332.494.494 0 0 1 .467.35l1.037 3.314h1.578a.5.5 0 0 1 0 1h-1.951a.5.5 0 0 1-.475-.35l-.7-2.227-1.795 5.1a.5.5 0 0 1-.441.336z" transform="translate(-18354 -16786)" style="fill:#08b6ce"/>
</svg>
