<svg xmlns="http://www.w3.org/2000/svg" width="14" height="14" viewBox="0 0 14 14">
    <g data-name="그룹 55201">
        <path data-name="합치기 1161" d="M4.46 11.937a.44.44 0 0 1-.206-.374V6.941L.375 2.5A1.582 1.582 0 0 1 0 1.39V1a1 1 0 0 1 1-1h9a1 1 0 0 1 1 1v.39a1.584 1.584 0 0 1-.373 1.11l-3.9 4.463v3.5a.439.439 0 0 1-.193.369l-1.649 1.099a.389.389 0 0 1-.218.069.421.421 0 0 1-.207-.063z" transform="translate(1.499 .996)" style="fill:none;stroke:#7b7b7b"/>
        <path data-name="사각형 29153" transform="translate(5.498 7.15)" style="fill:#7b7b7b" d="M0 0h3v1H0z"/>
    </g>
</svg>
