<svg xmlns="http://www.w3.org/2000/svg" width="14" height="14">
    <path data-name="합치기 1164" d="M21630.352 17579.584a.5.5 0 0 1 0-.711l3.184-3.178-2.623-2.623a1 1 0 0 1 .674-1.711l2.111-.076 2.445-2.451-.109-.836a1 1 0 0 1 1.7-.836l5.035 5.035a1 1 0 0 1-.836 1.7l-.838-.107-2.449 2.443-.076 2.119a1 1 0 0 1-1.711.668l-2.617-2.619-3.184 3.184a.5.5 0 0 1-.707 0zm6.85-10.391-3.074 3.074-.391.016-2.113.082 5.947 5.943.094-2.5 3.068-3.076 1.33.18v-.006l-5.035-5.029z" transform="translate(-21629.205 -17566.867)" style="fill:#707070"/>
</svg>
