<svg xmlns="http://www.w3.org/2000/svg" width="14" height="14">
    <g data-name="그룹 14741">
        <path data-name="빼기 61" d="M-1086-244h-5.149a.856.856 0 0 1-.58-.235.863.863 0 0 1-.271-.6v-1.184a1 1 0 0 1 .72-.945l3.527-1.642a.32.32 0 0 0 .205-.249.275.275 0 0 0-.112-.252 4.45 4.45 0 0 1-1.34-3.359v-1.171a3.251 3.251 0 0 1 .992-2.348A3.615 3.615 0 0 1-1085.5-257a3.61 3.61 0 0 1 2.511 1.014 3.255 3.255 0 0 1 .995 2.285v1.255a4.395 4.395 0 0 1-.629 2.446h-1.232a3.471 3.471 0 0 0 .852-2.425v-1.212a2.282 2.282 0 0 0-.686-1.628 2.617 2.617 0 0 0-1.819-.734 2.617 2.617 0 0 0-1.82.734 2.233 2.233 0 0 0-.685 1.58v1.238a3.476 3.476 0 0 0 .99 2.582 1.245 1.245 0 0 1 .455 1.142 1.323 1.323 0 0 1-.8 1.031l-3.581 1.661L-1091-245h5v1zm7-.82v-1.28a.286.286 0 0 1 0 .038v1.244z" transform="translate(1092 257)" style="fill:#7b7b7b"/>
        <g data-name="그룹 14740">
            <path data-name="패스 14309" d="m1414.163 557.2-2 2 2 2" transform="translate(-1405.663 -548.703)" style="stroke-linejoin:round;stroke-miterlimit:10;fill:none;stroke:#08b6ce;stroke-linecap:round"/>
            <path data-name="선 812" transform="translate(7.5 10.5)" style="fill:none;stroke:#08b6ce;stroke-linecap:round" d="M5 0H0"/>
        </g>
    </g>
</svg>
