<svg id="ic_patient_check_s_normal" xmlns="http://www.w3.org/2000/svg" width="14" height="14">
    <defs>
        <style>
            .cls-2{fill:#b4b4b4}
        </style>
    </defs>
    <g id="그룹_14741" data-name="그룹 14741" transform="translate(-331 -733)">
        <path id="빼기_61" data-name="빼기 61" class="cls-2" d="M-1086-244h-5.149a.856.856 0 0 1-.58-.235.863.863 0 0 1-.271-.6v-1.184a1 1 0 0 1 .72-.945l3.527-1.642a.32.32 0 0 0 .205-.249.275.275 0 0 0-.112-.252 4.45 4.45 0 0 1-1.34-3.359v-1.171a3.251 3.251 0 0 1 .992-2.348A3.615 3.615 0 0 1-1085.5-257a3.61 3.61 0 0 1 2.511 1.014 3.255 3.255 0 0 1 .995 2.285v1.255a4.429 4.429 0 0 1-1.279 3.285.517.517 0 0 0-.146.161h-1.033a1.285 1.285 0 0 1 .519-.917 3.437 3.437 0 0 0 .93-2.507v-1.212a2.282 2.282 0 0 0-.686-1.628 2.617 2.617 0 0 0-1.819-.734 2.617 2.617 0 0 0-1.82.734 2.233 2.233 0 0 0-.685 1.58v1.238a3.476 3.476 0 0 0 .99 2.582 1.245 1.245 0 0 1 .455 1.142 1.323 1.323 0 0 1-.8 1.031l-3.581 1.661-.051 1.03h5v1zm7-.82v-1.28a.286.286 0 0 1 0 .038v1.244z" transform="translate(1423 990)"/>
        <path id="합치기_537" data-name="합치기 537" class="cls-2" d="M5.375 5.945A.5.5 0 0 1 5.09 5.8a.505.505 0 0 1-.038-.042L2.974 3.683a.5.5 0 0 1 .707-.707l1.765 1.765 3.18-3.18a.5.5 0 0 1 .707.707L5.84 5.762a.505.505 0 0 1-.04.038.5.5 0 0 1-.428.141z" transform="translate(335.001 740)"/>
    </g>
</svg>
